<?xml version="1.0" encoding="UTF-8" standalone="no"?>
<!-- Created with Inkscape (http://www.inkscape.org/) -->

<svg
   width="210mm"
   height="297mm"
   viewBox="0 0 210 297"
   version="1.1"
   id="svg300"
   inkscape:version="1.1.2 (b8e25be8, 2022-02-05)"
   sodipodi:docname="init_drawing.svg"
   xmlns:inkscape="http://www.inkscape.org/namespaces/inkscape"
   xmlns:sodipodi="http://sodipodi.sourceforge.net/DTD/sodipodi-0.dtd"
   xmlns="http://www.w3.org/2000/svg"
   xmlns:svg="http://www.w3.org/2000/svg">
  <sodipodi:namedview
     id="namedview302"
     pagecolor="#ffffff"
     bordercolor="#666666"
     borderopacity="1.0"
     inkscape:pageshadow="2"
     inkscape:pageopacity="0.0"
     inkscape:pagecheckerboard="0"
     inkscape:document-units="mm"
     showgrid="false"
     inkscape:zoom="0.57905443"
     inkscape:cx="396.3358"
     inkscape:cy="561.25984"
     inkscape:window-width="1440"
     inkscape:window-height="872"
     inkscape:window-x="0"
     inkscape:window-y="28"
     inkscape:window-maximized="0"
     inkscape:current-layer="text1714" />
  <defs
     id="defs297" />
  <g
     inkscape:label="Layer 1"
     inkscape:groupmode="layer"
     id="layer1">
    <g
       aria-label="K"
       transform="scale(1.080097,0.92584274)"
       id="text1714"
       style="font-size:115.102px;line-height:1.25;font-family:'Kaysan Signature';-inkscape-font-specification:'Kaysan Signature';stroke-width:2.87757">
      <path
         d="m 133.89203,113.18704 q 2.07183,2.87755 -1.26612,5.8702 -0.11511,0.2302 -4.02857,3.22286 -15.65388,12.20081 -22.6751,19.22203 -18.991827,19.22203 4.14367,33.14938 4.71919,2.87755 12.20082,5.17959 3.79836,1.15102 4.94938,1.61142 3.45306,1.38123 3.22286,3.56817 -0.1151,0.92081 -0.57551,1.61142 -0.34531,0.57551 -1.15102,0.80572 -0.80572,0.2302 -1.26612,0.3453 -0.46041,0 -1.61143,0.11511 -2.64735,0.2302 -4.37388,-0.23021 -11.6253,-2.87755 -19.68244,-8.51755 -7.942037,-5.7551 -11.855505,-15.88407 -0.690612,-1.84163 -2.417142,-2.53225 -10.35918,12.08571 -19.106932,26.01306 -2.647345,4.25877 -2.762447,4.37387 -2.30204,2.87755 -5.294692,1.26612 -2.417142,-1.38122 -1.841632,-4.37387 0.230204,-1.38123 1.381224,-4.25878 14.042443,-36.60243 27.509377,-57.6661 4.488978,-7.13632 6.215508,-12.66122 0,-0.1151 0.230204,-0.92081 0.345306,-0.80572 0.345306,-1.03592 0.115102,-0.34531 0.230204,-1.03592 0.230204,-0.69061 0.230204,-1.03592 0,-0.3453 0,-0.92081 0,-0.57551 -0.230204,-0.92082 -0.115102,-0.46041 -0.345306,-0.92081 -0.230204,-0.57551 -0.57551,-0.92082 -0.57551,-0.57551 -1.15102,-0.80571 -0.460408,-0.34531 -1.035918,-0.46041 -0.57551,-0.1151 -1.15102,0 -0.460408,0 -1.15102,0.2302 -0.57551,0.1151 -1.035918,0.34531 -0.345306,0.1151 -1.15102,0.46041 -0.690612,0.3453 -0.920816,0.4604 -8.977956,3.56817 -16.344484,9.78367 1.72653,-3.79836 4.834284,-7.48163 3.107754,-3.79836 6.791018,-6.44571 3.798366,-2.762447 7.251426,-3.913467 5.985304,-1.956733 9.898772,0.805714 4.028569,2.762453 4.258769,9.208163 0.23021,6.90612 -4.143667,14.84815 -1.841632,3.45306 -5.409794,9.55347 -3.568162,6.10041 -4.949386,8.51755 -3.798366,6.56081 -5.064488,11.8555 3.568162,-3.56816 3.798366,-3.68326 18.646519,-20.60326 35.451419,-32.80407 3.56816,-2.76245 5.52489,-3.79836 3.91347,-2.07184 6.10041,0.80571 z"
         id="path3600" />
    </g>
  </g>
</svg>
